<?xml version="1.0" encoding="utf-8"?>
<!-- Generator: Adobe Illustrator 18.0.0, SVG Export Plug-In . SVG Version: 6.00 Build 0)  -->
<!DOCTYPE svg PUBLIC "-//W3C//DTD SVG 1.1//EN" "http://www.w3.org/Graphics/SVG/1.1/DTD/svg11.dtd">
<svg version="1.1" id="圖層_1" xmlns="http://www.w3.org/2000/svg" xmlns:xlink="http://www.w3.org/1999/xlink" x="0px" y="0px"
	 viewBox="0 0 400 400" enable-background="new 0 0 400 400" xml:space="preserve">
<g>
	<path fill="#D7B3AF" d="M191.9,170.4c2.1,3.2,7,2.3,10.4,0.5c3.4-1.8,7.1-4.1,10.7-2.8c1.9,0.7,3.3,2.4,4.5,4
		c4.2,5.2,8.6,11.7,6.5,18.1c-0.9,2.7-2.9,4.9-4.9,7c-2.3,2.5-4.9,5.1-8.3,5.4c-3.6,0.3-6.9-2.1-10.4-3.2c-2.7-0.8-5.6-0.8-8.3-1.4
		c-2.7-0.6-5.6-2-6.6-4.6c-0.7-1.8-0.4-3.9-0.1-5.9c1-6.4,2.6-13.8,8.4-16.8"/>
</g>
<g>
	<path fill="#B58383" d="M313.5,83.6c5.7-0.4,11.5-0.7,17.2-1.1c1-0.1,2.3,0,2.8,0.9c0.3,0.5,0.3,1.1,0.2,1.6
		c-1.3,24.9-2.6,49.7-3.9,74.6c-0.3,5.1-0.6,10.6-3.6,14.8s-9.4,6.4-13.3,3.1c-3.4-2.9-3.2-8.2-2.8-12.7c1.4-15.9,1.6-32,0.5-47.9
		c-0.8-12.3-2.4-25.2,2.1-36.7"/>
</g>
<g>
	<path fill="#B58383" d="M26.9,274.2c19.5-5.2,39-10.5,58.5-15.7c12.1-3.2,26.6-5.9,35.7,2.7c3.6,3.4,5.7,8.2,7.7,12.7
		c5.7,13.1,11.3,26.1,17,39.2c2,4.7,4.1,9.7,3,14.7c-1.4,6.5-7.7,10.6-13.6,13.7c-11.6,5.9-23.9,10.4-36.7,13.2
		c-9.4,2.1-19.3,3.3-28.7,1.3c-9.4-2-18.5-7.5-22.9-16.1c-4.1-7.9-4.6-18.6-12.4-23.1c-2.7-1.6-5.9-2-8.6-3.6
		c-6.6-3.7-8.6-12.8-6.5-20.1c2.1-7.3,7.3-13.2,12.4-18.9"/>
</g>
<g>
	<g>
		<g>
			<g>
				<path fill="#1F2E3F" d="M266.8,66.6c12,7.1,20.9,18.1,25.6,31.2c5.2,14.5,2.2,29.8,2.1,44.7c0,7,1.4,13.6,2.8,20.3
					c1.9,9.4,0.3,18.2-1.8,27.4c-3.7,15.6-9,30.9-15.6,45.5c-2.8,6.2-5.7,12.5-10.3,17.6c-6.1,6.8-15.3,7.5-23.8,6.2
					c-14.4-2.1-28.7-8.9-41.1-16.3c-12.2-7.3-25-16.9-30.1-30.8c-2.9-8,1.5-26.2-9.8-29.7c-5.9-1.8-11,2.7-17.1,1.7
					c-10-1.7-13.3-12.9-11.5-21.5c1.6-7.6,9-18.1,17.8-13.2c6.1,3.5,7.3,12.9,7.7,19.1c0.5,8.8-2,18.3-10.9,21.9
					c-6.5,2.6-7.3-5.3-6.2-9.6c1.2-4.4,5.1-8,8-11.2c10.9-11.9,21.7-23.8,32.6-35.6c3-3.2,7.8-7.4,8.2-12.2
					c0.5-6.4-5.4-10.7-6.7-16.8C183,88.7,200.2,76.4,212.9,70c6.7-3.3,13.9-5.5,21.2-6.8c5.2-1,12.2,0,16.4-3.9
					c1.6-1.5,2.5-5.3,0.8-7c-3.3-3.3-10.4-2.8-14.6-2.8c-24.8-0.1-47,15.5-60.3,35.5c-7.4,11.1-12,24-14.9,36.9
					c-2.9,13-4.4,27.1-2.4,40.3c2.2,14.2,9.4,25.8,15.7,38.4c7.3,14.7,9.1,30.9,4.5,46.8c-4,13.9-11.9,25.5-13.4,40.2
					c-1.4,13.4-1.2,35.2-19.1,37.5c-16.8,2.1-36.3-26.5-51.5-7.8c-2.4,3-3.8,7.1-4.2,10.9c-0.3,2.6-0.3,5.2,0,7.8
					c0.4,4,3.1,10.1-3.2,11.7c-5.4,1.4-12.1,1-17.6,0.6c-7.3-0.6-14.4-3.1-18.9-9.1c-4.3-5.8-4.1-13.7-3.6-20.5
					c0.7-8.6,2.2-17.1,4.1-25.5c1.7-7.3,3.6-14.8,6.7-21.6c3.4-7.5,10.1-10.8,17-14.2c23.1-11.4,20.6-37.5,16.5-59
					c-3.3-16.9-5.2-32.6,4-48.1c3.6-6.1,7.8-11.8,11.3-18c3.9-6.8,7.2-14,10.3-21.2C129.5,84.4,140.1,54.7,165,37
					c12-8.6,27.1-13.1,41.8-10.7c3.5,0.6,6.8,1.7,9.8,3.5c4.7,2.8-0.8,4.5-3.5,6.1c-6.6,3.8-13.8,6.4-20.8,9.3
					c-11.6,4.8-21.5,11.2-29.7,20.7c-7.8,9.1-13.3,20.1-17.7,31.2c-1.1,2.7-10.3,22.5-1.9,22.8c4.7,0.2,9-4,12.3-7
					c3.7-3.4,7.6-8.3,8.2-13.4c0.4-2.9-2.6-4.3-4.9-4.6c-4.7-0.5-9.6,3.6-13.1,6c-9.3,6.7-17,15.4-23.1,25.1
					c-6.3,10.1-10.3,21.5-12.2,33.3c-1.8,11.3-1.8,24.8,3,35.3c5,11,15.1,17.7,23.1,26.4c11.6,12.6,9.9,28.6,3.5,43.3
					c-5.3,12-12.9,23.6-21.1,33.9c-7.9,10-17.8,18.4-30.5,21.1c-8.6,1.8-19.1-2-17.6-12.5c0.8-6.1,6.4-10.2,11.3-13
					c9.7-5.5,20.2-8.1,27.5-17.1c6.2-7.6,9.6-19.3,5.9-28.7c-3.3-8.4-14.2-9.1-19.8-2.8c-7,8,0.4,16.7,6.2,22.4
					c13.4,13.2,4,30-4.8,42.7c0.5,0.2,0.9,0.4,1.4,0.6c3.5-25.8,21.5-45.4,37.5-64.7c7.2-8.8,15.7-18.3,19.5-29.2
					c1.4-4.1,0.7-8.1-1.5-11.7c-2.7-4.4-7.6-7.4-7.8-13c0-1-1.5-1-1.5,0c0.1,3.1,1.4,5.6,3.3,8c1.6,1.9,3.2,3.7,4.6,5.8
					c3,4.2,2.2,9,0.3,13.5c-4.9,11.5-14.7,21.6-22.6,31.1c-14.8,17.7-30.1,36.4-33.3,59.9c-0.1,0.8,0.9,1.3,1.4,0.6
					c7.1-10.2,14.1-21.4,11-34.3c-1.2-5.1-5-8.8-8.6-12.3c-2.7-2.6-5-5.3-6.1-9c-1.6-5.5,2.2-11.1,7.4-12.8
					c11.3-3.8,14.1,10.2,13,18c-1.1,7.5-5.3,14.3-10.8,19.4c-8.1,7.5-19.9,8.8-28.3,15.9c-6,5-11,16.2-2.9,21.9
					c8.4,6,19.7,2.7,28-1.8c10.2-5.5,17.8-15,24.4-24.4c7.5-10.8,14.7-22.3,18.9-34.8c3.9-11.5,3.1-23.6-4.1-33.6
					c-7-9.8-17.9-15.9-24.1-26.3c-7.3-12.3-6.2-29.7-3.4-43.2c2.6-12.5,8.3-24.2,15.9-34.4c3.8-5.1,8.2-9.6,13-13.8
					c2.6-2.2,5.3-4.2,8.1-6c1.1-0.7,2.3-1.4,3.5-2.1c2.6-1.4,11.7-3.3,7.4,5.5c-1.6,3.3-4.1,6.1-6.6,8.7c-1.4,1.4-11,10.3-13,4.3
					c-1-3,1-7,1.9-9.7c1.2-3.5,2.4-6.9,3.8-10.3c5.1-12.8,12.1-24.9,21.9-34.6c10.2-9.9,23.5-14.4,36.3-19.9
					c5.5-2.4,10.8-5.2,15.7-8.7c0.4-0.3,0.5-0.8,0.2-1.2c-7.6-8.3-21.2-8.3-31.4-6.6c-12.3,2.1-23.7,8.7-32.9,16.9
					c-21.4,19.2-30.9,48-42.5,73.5c-3,6.6-6.3,13.1-9.9,19.4c-3.8,6.6-8.5,12.6-12,19.4c-6.4,12.2-5,26.2-2.6,39.3
					c2.5,13.7,5.7,27.2,2.7,41.1c-1.3,6.1-4.3,11.7-8.8,16.1c-5.1,4.9-12.3,6.9-18.2,10.7C54.9,268,52.5,283.6,50,294.7
					c-2.8,12.3-6.2,27.2-2.7,39.7c2.7,9.6,12.2,14.4,21.5,15.4c5.6,0.6,11.1,0.4,16.7-0.1c3.8-0.3,7.4-1.3,8.3-5.4
					c0.4-1.8-0.5-4.1-0.9-5.8c-0.7-2.9-0.7-5.9-0.5-8.9c0.5-7.2,4.3-14.1,11.4-16.4c10.3-3.4,21.5,6.5,30.2,10.6
					c8.2,3.9,16.8,4,23.7-2.4c9.1-8.4,8.7-22.5,9.7-33.8c1.3-15.5,10.4-28.3,14.3-43.2c3.4-13.2,1.8-27.2-3.4-39.7
					c-5.5-13.4-14.1-25-17.1-39.3c-3.1-15.1-1-31.5,2.5-46.3c6.7-28.2,24.2-53.9,52.1-64.3c6.2-2.3,12.7-3.5,19.3-3.8
					c3.5-0.2,7,0.1,10.5,0.6c0.5,0.1,1,0.2,1.5,0.3c4.2,3.8,4,6.6-0.7,8.2c-2.2,0.9-5,0.8-7.3,1c-13.3,1.2-26.2,6.2-37.3,13.7
					c-9.5,6.4-17.1,15.9-17.1,27.8c0,5.7,2.8,9.8,5.8,14.3c5.3,8-8.3,18.4-13,23.6c-10.4,11.4-22,22.4-31.4,34.7
					c-3.8,4.9-6.5,19.1,3.5,17.6c12.3-1.9,13.9-17.6,13.1-27.3c-0.6-6.7-4.3-18.3-12.7-18.4c-10.9-0.2-16.2,13.1-16.1,22.3
					c0.1,8.8,8.3,18.5,17.8,17c3.5-0.6,6.7-2.3,10.3-2.5c4.7-0.2,7.5,5.3,8.6,9c2,7.1,0.3,14.4,3,21.6c4,11,13.8,19,23,25.5
					c11.4,8.1,24.2,14.1,37.5,18.4c11.2,3.6,24.2,6,34.2-1.7c4.1-3.1,6.8-7.8,9.1-12.3c3.4-6.4,6.2-13.2,8.9-19.9
					c5.7-14.3,10.4-29.5,12.9-44.8c1-6.5,0.5-12.6-0.8-19c-1.7-8.6-2.5-16.7-2.2-25.5c0.6-14,1.8-27.2-3.4-40.5
					C288,82.3,278.9,72,267.6,65.3C266.7,64.8,266,66.1,266.8,66.6L266.8,66.6z"/>
			</g>
		</g>
		<g>
			<g>
				<path fill="#1F2E3F" d="M225.6,28.9c29.5-14.5,60.9,6.4,78.7,29.5c8.8,11.4,14.9,25.2,15.3,39.7c0.4,14.6-7.9,27.7-8.8,42.2
					c-0.4,6.5,0.8,12.7,2,19c0.8,4.4,1.1,9-2.1,12.5c-2.9,3.3-8.9,3.2-12.8,2.6c-21-3.6-0.2-28.6,5-37.4
					c12.6-21.5,6.8-49.2-12.4-64.7c-7.9-6.4-20.5-12.6-30.8-9.3c-3.3,1.1-6.4,4.8-6.4,8.4c0,4.5,2.7,6.8,6.9,7.8c4,1,8.7,0.3,12-2.3
					c3.8-3,1.2-8.7-0.3-12.1c-5.5-11.8-14.3-22-24.6-29.9c-0.8-0.6-1.5,0.7-0.8,1.3c5.6,4.2,10.5,9,14.8,14.5
					c3.8,4.7,15,19,9.8,25.1c-2.6,3.1-8.7,2.4-12,1.6c-5-1.3-4.9-5.8-3.4-9.1c1.1-2.3,3.4-3.5,5.7-4.3c6.9-2.3,16.1,2.1,22,5.4
					c12.3,6.8,20.7,19,23.7,32.7c3.4,15.8-2.4,29.8-11.1,42.7c-5.1,7.5-14.1,19.7-5.4,27.9c5,4.8,18,5.6,22.1-0.9
					c2.5-4,2.1-8.3,1.4-12.8c-1.4-8.8-2.6-16.7-1.2-25.6c1.1-7,3.9-13.6,5.9-20.3c1.9-6.4,2.4-13,1.8-19.6
					c-2-22.4-17.9-42.3-35-55.7c-17.1-13.4-40.5-20.1-61-10.1C224,28,224.7,29.3,225.6,28.9L225.6,28.9z"/>
			</g>
		</g>
		<g>
			<g>
				<path fill="#1F2E3F" d="M188.7,125.8c15.2-11.8,38.5-27.5,56.7-11.6c0.2-0.4,0.4-0.9,0.5-1.3c-13.1-1.5-26.5-1.7-39.6,0.2
					c-9.2,1.3-19.1,5-20.2,15.6c-0.9,8.7,9.3,12,16.1,11.7c5.5-0.2,10.9-2.6,16.3-3.9c7.8-1.8,15.6,0.3,22,5
					c0.1-0.5,0.3-0.9,0.4-1.4c-9,0.1-17.8-5.7-26.9-4c-6,1.1-11.6,4.4-12,11c0,0.4,0.3,0.6,0.6,0.7c11.3,4.7,24.1,3.1,33.9-4.3
					c0.4-0.3,0.5-1,0-1.3c-7.1-4.3-15.4-8.6-23-2.9c-3.9,3-6.1,10.6,0.7,10.5c4,0,9.8-5.8,7.3-10c-2.4-4.1-8.5-2.2-9.8,1.7
					c-0.2,0.5,0.3,0.9,0.7,0.9c15.9,0.5,54.6-1.3,53.2-25c0-0.5-0.6-1-1.1-0.6c-9.8,6.5-0.5,20.8,2,28.8c4.5,15,5.6,30.9,3.7,46.4
					c0.5-0.1,0.9-0.3,1.4-0.4c-4.1-5.4-12.9-4.7-15.8,1.5c-0.3,0.7,0.3,1.3,1,1c6.4-2.9,13-4.6,20-5c-0.2-0.4-0.4-0.8-0.6-1.1
					c-1.6-1.1-3.2-2.3-4.8-3.4c0-1.2,0.1-2.3,0.1-3.5c0.1-1.9,0.2-3.9,0.3-5.8c0.2-3.9,0.4-7.7,0.6-11.6c0.4-7.4-0.2-15.7,1.7-22.8
					c1.4-5.5,7.7-5.4,12-5c1.4,0.1,8,0.5,4.6,4.8c-1.2,1.4-2.7,2.7-4.2,3.8c-4,3-12.2,3.5-12.9-3.3c0.4-1.2,0.9-2.3,1.3-3.5
					c3.7,6,3.8,7.6,0.3,5.1c1.3-0.6,2.5-1.5,3.6-2.3c8.1-5.8,12.2-16.1,11.3-25.8c-0.9-10.2-15.6-4.7-20.6-1.2c-0.4,0.3-0.5,1,0,1.3
					c10.2,5,24-5.4,32.7,2.6c0.7,0.7,1.8-0.4,1.1-1.1c-9.3-8.5-22.6,2.3-33-2.8c0,0.4,0,0.9,0,1.3c3.9-2.7,8.1-4.1,12.8-4.2
					c7.1-0.2,6,8,5.1,12.5c-1.6,8.4-7.6,15.4-15.1,19.1c-0.5,0.2-0.4,0.8-0.2,1.2c2.9,3.5,8.5,2.4,9.5-2.2c1.1-5-5.5-7-8.7-4.5
					c-3.8,3-1.3,9.4,2.6,10.8c6.4,2.2,13.8-2.1,16.7-8c2.6-5.2-9.3-5.2-11.4-5.2c-8.3,0.2-9.7,7.2-10,14
					c-0.6,12.1-1.5,24.3-1.8,36.4c-0.1,3.9,5.1,9.5,7.6,4.1c0.2-0.5,0-1.2-0.6-1.1c-7.3,0.5-14.1,2.2-20.8,5.2c0.3,0.3,0.7,0.7,1,1
					c2.4-5.1,9.7-6.1,13.2-1.5c0.5,0.6,1.3,0.4,1.4-0.4c1.4-11.5,1.1-23-0.9-34.4c-1-6-2.6-11.8-4.5-17.5c-2.2-6.4-8.8-16.8-1-21.9
					c-0.4-0.2-0.8-0.4-1.1-0.6c1.1,18.5-25.2,22-38.6,23.2c-3.7,0.3-7.5,0.4-11.2,0.3c0.5-0.6,1.1-1.2,1.6-1.8
					c2.8-0.8,4.3,0.6,4.3,4.1c-0.7,3.5-4.8,5.4-8,4.8c-3.8-0.7,2.4-7.8,3.2-8.4c1.9-1.5,4.3-1.8,6.7-1.8c4.9,0,9.6,3.1,13.6,5.6
					c0-0.4,0-0.9,0-1.3c-5.3,4-11.4,6.2-18,6.7c-3,0.2-6-0.1-8.9-0.7c-1.5-0.3-3-0.8-4.4-1.3c-2.3-0.8,1.1-4.9,1.6-5.5
					c8.8-9.8,24.4,0.3,35,0.1c0.8,0,1-1,0.4-1.4c-6.1-4.5-13.9-6.9-21.4-5.4c-9.5,1.8-21.3,8.2-29.7,0.3c-5.7-5.4-0.6-13.6,4.5-16.9
					c4.9-3.2,11.7-3.6,17.4-4.2c11.3-1.1,22.7-0.8,34,0.4c0.6,0.1,1-0.9,0.5-1.3c-18.8-16.6-42.9-0.8-58.8,11.6
					C186.9,125.3,188,126.4,188.7,125.8L188.7,125.8z"/>
			</g>
		</g>
		<g>
			<g>
				<path fill="#1F2E3F" d="M238.9,225.4c4.5-1.4,8.7-3.4,12.4-6.3c1-0.8,10.1-10.1,9.9-10.3c1.6,1,2.9,1.2,4.8,1.1
					c1,0,2.1-0.4,3.1-0.7c0.6-0.1,1.1-0.3,1.7-0.4c4.3,3.3,4.7,5.1,1.3,5.4c-7.9,1.9-16,2.6-24.1,2.4c-0.4,0-0.7,0.4-0.8,0.8
					c-0.6,5.3,1.8,11.4,7.1,13.6c6.6,2.7,12,0.4,16.7-4.3c4.4-4.3,8.7-6.6,14.7-3.2c4.5,2.5,6.7,7.9,8.7,12.4
					c2.8,6.5,5.9,12.9,13,15.5c0.8,0.3,1.2-0.9,0.6-1.4c-7.3-5-16.8-4.2-23.2,1.9c-3.2,3.1-5.1,7.6-6.9,11.6
					c-1.1,2.4-2.3,4.8-3.7,7.1c-0.9,1.5-2,2.6-3.3,3.8c-0.7,0.5-1.4,1-2.1,1.6c-3.9,2.6-6.5,0.6-7.9-5.9c1.6-3,4.7-5.3,7.5-7
					c2.8-1.7,6.3-2.8,9.4-0.1c1.8,1.6,2.4,4.4,2.9,6.7c1.1,4.6,2.5,9,6.7,11.7c7.8,5.1,17.3,2.7,22-5.2c1.3-2.1,1.7-5.6-0.6-7.3
					c-3.5-2.6-7.1-1.8-10.4,0.6c-4.7,3.2-8.6,8.3-12.6,12.3c-4.8,4.9-9.5,9.9-14.7,14.3c-5.1,4.3-11.2,7.1-18,6.7
					c-7.6-0.4-13.3-6.1-13.1-13.8c0.3-10.1,8.4-18.2,7-28.7c-0.1-1-1.6-0.5-1.4,0.4c1.5,11-7.6,19.9-7,30.8
					c0.5,8.8,9.4,12.9,17.1,12.8c11.3-0.1,20.1-10.2,27.3-17.5c5-5.1,10-10.4,15.2-15.3c2.5-2.3,5.5-3.7,8.9-2.1
					c4.7,2.2,0,7.7-1.6,9.4c-3.2,3.4-8.3,4.4-12.7,3.5c-3.9-0.8-6.9-3.7-8.9-7c-1.7-2.9-1.5-6.5-2.8-9.5c-1.3-3.1-4.1-6.8-8-6
					c-4.8,0.9-20.6,10.6-13.5,16.9c7.6,6.7,15.3-3.8,18.3-9.9c2.6-5.2,4.5-10.6,8.8-14.7c5.5-5.3,14.5-4.8,20.4-0.7
					c0.2-0.5,0.4-0.9,0.6-1.4c-12.6-4.6-11.2-22-22.6-28.4c-3.6-2-7.6-1.6-11,0.4c-2,1.2-3.6,3.1-5.2,4.7c-3.6,3.6-7.9,4.9-12.9,3.5
					c-5-1.3-7.5-6.6-7.6-11.4c0-0.8,9.7-0.8,10.7-0.9c5.6-0.4,12.1-1,17.2-3.4c2.6-1.2,1.5-4.2,0.2-5.8c-3.8-4.8-11.1,3-15.3-1.7
					c-0.3-0.4-0.9-0.2-1.2,0.2c-5.1,8.2-12.6,14.1-21.7,17C237.6,224.2,238,225.7,238.9,225.4L238.9,225.4z"/>
			</g>
		</g>
	</g>
	<g>
		<g>
			<path fill="#1F2E3F" d="M239.8,259.1c-7.6,21.3,12.5,39.5,25.5,53.4c16.5,17.6,32,40,27.1,65.4c0.5-0.1,0.9-0.1,1.4-0.2
				C277,349.9,237.8,356.5,212,344c-8-3.8-13.9-9.7-18.2-17.4c-4.2-7.6-8.1-13.8-15.4-18.7c-14.9-9.8-34.1-7.5-49.9-1.7
				c-0.5,0.2-0.8,1.1-0.2,1.4c9.8,4.2,20.2,5.3,30.7,3.6c10.1-1.6,22.3-6.8,28.5-15.3c7.8-10.7,0.4-20.9-4.5-31
				c-6.6-13.7-8.9-29.3-7.5-44.4c0.1-1-1.4-1-1.5,0c-1,10.7,0,21.3,2.7,31.7c1.4,5.2,3.4,10.2,5.7,15c2.9,6,6.7,11.5,7.2,18.3
				c0.9,12.7-16.7,20.5-26.6,23.3c-11.2,3.1-23.4,2.1-34.1-2.5c-0.1,0.5-0.1,0.9-0.2,1.4c17.8-6.5,38.3-7.9,53.5,5.2
				c6.5,5.5,8.6,13.8,13.7,20.3c4.4,5.7,10,9.7,16.4,12.8c25.2,12.2,63.6,5.3,79.9,32.5c0.3,0.5,1.2,0.5,1.4-0.2
				c4.1-20.8-5.4-40.2-18.1-56.1c-13.6-17-43.5-37.4-34.5-62.7C241.6,258.6,240.1,258.2,239.8,259.1L239.8,259.1z"/>
		</g>
	</g>
</g>
</svg>
